<?xml version="1.0" encoding="utf-8"?>
<!-- Generator: Adobe Illustrator 15.1.0, SVG Export Plug-In . SVG Version: 6.00 Build 0)  -->
<!DOCTYPE svg PUBLIC "-//W3C//DTD SVG 1.1//EN" "http://www.w3.org/Graphics/SVG/1.1/DTD/svg11.dtd">
<svg version="1.1" id="Layer_1" xmlns="http://www.w3.org/2000/svg" xmlns:xlink="http://www.w3.org/1999/xlink" x="0px" y="0px"
	 width="816.67px" height="469.546px" viewBox="0 0 816.67 469.546" enable-background="new 0 0 816.67 469.546"
	 xml:space="preserve">
<path fill="#C98028" d="M333.756,97.813c-17.666,2.586-49.122,10.558-49.122,26.93c0,9.05,7.541,16.375,18.96,16.375
	c11.634,0,22.621-3.448,30.162-9.266c0.646,5.604,0.431,10.989,2.155,16.591c-10.773,6.464-24.993,10.125-36.627,10.125
	c-21.76,0-38.348-9.909-38.348-29.73c0-18.099,13.573-29.301,32.532-35.765c12.495-4.309,27.146-6.895,40.288-8.402V97.813
	 M309.196,53.863c-6.895,0.215-12.927,1.291-18.314,4.093c5.172,2.37,7.54,5.816,7.54,10.557c0,8.187-6.247,13.143-14.65,13.143
	c-11.634,0-16.158-6.463-16.158-15.729c0-18.527,23.052-24.991,41.582-26.284V53.863z M381.154,124.632h12.926v15.408
	c0,13.574-11.633,18.528-21.758,18.528c-22.838,0-27.793-6.895-27.793-26.068V75.192c0-14.436-7.541-20.253-24.562-21.114v-14.65
	c21.114,0.646,46.536,7.325,46.536,29.084v69.157c0,3.664,0.862,6.25,7.326,6.25c7.325,0,7.325-4.095,7.325-9.912V124.632z"/>
<path fill="#C98028" d="M403.567,154.907v-13.144h14.22c6.248,0,7.755-2.153,7.755-7.971V62.048c0-4.522-3.878-5.601-6.248-5.601
	h-17.666v-12.28l47.397-3.662v93.072c0,6.033,3.232,8.187,8.188,8.187h14.866v13.144H403.567 M491.686,154.907v-13.144h12.926
	c6.464,0,7.756-2.586,7.756-7.971V78.638c0-15.942-12.711-21.544-25.637-21.544c-9.696,0-19.607,3.663-26.932,9.265V49.984
	c9.049-6.679,20.252-10.125,33.61-10.125c20.467,0,41.796,10.34,41.796,33.609v60.325c0,5.817,3.447,7.971,7.326,7.971h15.08v13.144
	H491.686z"/>
<path fill="#C98028" d="M597.121,158.355c-18.1-0.647-25.639-6.896-25.639-20.47V56.447h-21.976V44.598
	C573.421,43.736,578.591,29.516,578.591,0h15.944v43.951h25.932v12.496h-25.932v81.223c0,1.94,0.861,3.664,2.586,4.741V158.355
	 M607.893,143.273c2.586-1.077,4.31-3.018,4.31-5.604v-13.038h12.711v15.408c0,9.912-9.049,14.867-17.021,17.022V143.273z"/>
<path fill="#34945E" d="M160.544,190.354v-24.346c0-19.391,13.573-28.224,30.807-30.81v13.143
	c-5.385,2.586-7.971,7.756-7.971,14.219v28.362h37.488v12.495H183.38v76.562c0,6.032,3.017,8.188,8.187,8.188h21.329v13.142H137.49
	v-13.142h14.435c2.371,0,8.188-1.293,8.188-8.188v-77.131L160.544,190.354 M202.125,134.336c18.097,0,33.394,7.11,33.394,20.252
	c0,10.559-7.972,15.297-15.513,15.297c-7.11,0-14.004-4.308-14.004-12.063c0-3.233,1.509-6.68,4.739-10.127
	c-2.153-1.293-4.954-1.723-8.616-1.723V134.336z"/>
<path fill="#34945E" d="M298.906,244.214c-17.668,2.586-49.124,10.559-49.124,26.932c0,9.049,7.541,16.373,18.96,16.373
	c11.634,0,22.623-3.447,30.164-9.265c0.644,5.604,0.431,10.989,2.155,16.59c-10.775,6.464-24.995,10.126-36.629,10.126
	c-21.76,0-38.348-9.91-38.348-29.73c0-18.099,13.574-29.301,32.532-35.765c12.495-4.309,27.146-6.895,40.29-8.402V244.214
	 M274.345,200.264c-6.896,0.217-12.926,1.291-18.315,4.094c5.172,2.37,7.54,5.816,7.54,10.558c0,8.185-6.247,13.142-14.65,13.142
	c-11.634,0-16.157-6.464-16.157-15.728c0-18.528,23.053-24.992,41.582-26.285V200.264z M346.302,271.033h12.926v15.409
	c0,13.572-11.633,18.527-21.757,18.527c-22.839,0-27.794-6.895-27.794-26.068v-57.309c0-14.435-7.541-20.253-24.56-21.112v-14.651
	c21.112,0.646,46.534,7.325,46.534,29.086v69.156c0,3.664,0.862,6.25,7.327,6.25c7.324,0,7.324-4.096,7.324-9.912V271.033z"/>
<path fill="#34945E" d="M368.747,301.308v-13.142h14.006c2.8,0,8.186-1.293,8.186-8.188V208.45c0-4.524-3.448-5.603-5.386-5.603
	H366.81v-12.279l47.396-3.877v93.287c0,6.032,2.803,8.188,8.188,8.188h23.054v13.142H368.747 M424.98,198.109
	c7.106-6.68,17.233-11.418,31.885-11.418c15.943,0,25.853,7.324,25.853,20.683c0,11.633-8.186,16.804-16.157,16.804
	c-7.109,0-14.002-4.309-14.002-12.496c0-4.523,3.444-8.834,6.893-11.849c-1.508-0.215-3.23-0.431-4.741-0.431
	c-10.556,0-21.761,6.679-29.729,15.726V198.109z"/>
<path fill="#34945E" d="M492.289,301.308v-13.142h14.438c6.246,0,7.754-2.371,7.754-8.619V208.45c0-4.524-4.094-5.603-6.035-5.603
	h-17.881v-12.279l47.4-3.662v93.072c0,6.032,3.23,8.188,8.186,8.188h14.867v13.142H492.289 M578.682,301.308v-13.142h12.928
	c4.74,0,7.326-1.724,7.326-6.895v-60.54c0-11.636-12.496-17.236-24.992-17.236c-9.264,0-18.528,3.232-25.207,8.403v-15.514
	c8.834-6.463,19.822-10.125,33.824-10.125c19.174,0,39.859,10.557,39.859,29.516v66.143c0,2.8,3.23,6.248,6.893,6.248h15.943v13.142
	H578.682z M662.924,301.308v-13.142h12.926c4.094,0,7.541-1.078,7.541-6.464v-58.817c0-11.634-10.558-19.39-25.639-19.39
	c-9.266,0-18.1,3.663-24.561,9.265v-16.806c7.541-5.817,17.668-9.694,31.025-9.694c20.25,0,42.01,10.125,42.01,33.609v62.049
	c0,2.8,3.018,6.248,7.11,6.248h15.295v13.142H662.924z"/>
<path fill="#414142" d="M173.23,322.357c5.201,0,10.231,1.739,13.906,4.812l2.317-3.768h3.504v15.362h-3.956
	c-1.979-9.159-9.326-12.116-15.375-12.116c-12.379,0-15.375,9.218-15.375,17.566s3.448,16.986,15.997,16.986
	c10.005,0,14.867-6.608,14.867-14.436h4.522c0,10.319-4.749,18.609-20.181,18.609c-15.319,0-22.158-8.986-22.158-21.16
	C151.298,332.853,158.986,322.357,173.23,322.357"/>
<path fill="#414142" d="M223.818,322.532c14.528,0,22.836,8.754,22.836,21.103c0,12.58-8.422,21.74-23.74,21.74
	c-12.719,0-22.781-8-22.781-21.045C200.133,332.156,206.804,322.532,223.818,322.532 M223.196,361.259
	c12.889,0,16.111-8.695,16.111-17.45c0-8.579-3.166-17.276-15.602-17.276c-13.001,0-16.561,8.871-16.561,17.565
	C207.144,353.027,210.252,361.259,223.196,361.259z"/>
<path fill="#414142" d="M259.824,358.418v-28.117c0-1.16-1.131-2.145-2.375-2.145h-5.257v-3.885h14.585l23.967,30.146v-24.176
	c0-1.564-0.961-2.086-2.545-2.086h-5.087v-3.885h19.954v3.885h-5.201c-1.469,0-2.373,0.984-2.373,2.145v34.147h-4.24l-26.736-32.756
	v26.783c0,1.623,1.073,2.088,2.882,2.088h4.692v3.885h-19.898v-3.885h5.144C258.806,360.563,259.824,359.578,259.824,358.418"/>
<path fill="#414142" d="M342.745,339.054h-3.9c-1.13-7.071-6.387-12-14.358-12c-4.804,0-9.213,1.682-9.213,6.146
	c0,2.03,1.13,3.941,4.635,4.87l13.792,3.768c5.879,1.624,10.967,3.537,10.967,11.074c0,8.521-8.31,12.464-16.619,12.464
	c-5.031,0-10.062-1.449-13.284-4.231l-2.261,3.362h-3.336v-15.364h3.732c2.261,7.016,5.256,11.886,14.753,11.886
	c5.257,0,11.079-2.029,11.079-6.898c0-2.319-1.527-4.174-4.296-4.871l-16.958-4.29c-6.217-1.564-8.592-6.493-8.592-10.203
	c0-7.711,7.518-11.826,15.657-11.826c4.58,0,8.592,1.564,12.72,4.057l2.203-3.13h3.279V339.054"/>
<path fill="#414142" d="M393.334,330.242v21.394c0,11.42-9.156,13.914-16.449,13.914c-8.648,0-18.993-0.87-18.993-13.219v-22.089
	c0-1.158-0.961-2.086-2.543-2.086h-5.201v-3.885h21.48v3.885h-4.296c-1.865,0-2.939,0.464-2.939,2.086v21.509
	c0,8.465,7.518,9.161,12.832,9.161c4.974,0,11.192-0.928,11.192-9.74v-20.93c0-1.622-1.018-2.086-2.883-2.086h-4.692v-3.885h20.067
	v3.885h-5.031C394.296,328.156,393.334,329.084,393.334,330.242"/>
<path fill="#414142" d="M422.838,328.156c-1.865,0-2.826,0.521-2.826,2.086v30.321h14.301c7.066,0,7.914-6.319,8.196-12.58h3.789
	v16.465H405.88v-3.885h5.201c1.414,0,2.431-0.985,2.431-2.146v-28.117c0-1.16-1.017-2.145-2.488-2.145h-5.144v-3.885h22.442v3.885
	H422.838"/>
<path fill="#414142" d="M471.674,358.476c0,1.623,0.962,2.088,2.828,2.088h4.689v3.885h-21.705v-3.885h5.144
	c1.472,0,2.488-0.985,2.488-2.146v-30.146h-4.464c-7.405,0-8.028,4.581-8.819,10.899h-3.675v-14.899h40.587v14.899h-3.618
	c-0.847-6.318-1.414-10.899-8.705-10.899h-4.75V358.476"/>
<path fill="#414142" d="M508.302,358.476c0,1.623,0.962,2.088,2.828,2.088h4.747v3.885h-21.706v-3.885h5.144
	c1.47,0,2.488-0.985,2.488-2.146v-28.117c0-1.16-1.019-2.145-2.488-2.145h-5.144v-3.885h21.706v3.885h-4.747
	c-1.866,0-2.828,0.521-2.828,2.086V358.476"/>
<path fill="#414142" d="M529.781,358.418v-28.117c0-1.16-1.131-2.145-2.374-2.145h-5.257v-3.885h14.584l23.967,30.146v-24.176
	c0-1.564-0.96-2.086-2.544-2.086h-5.087v-3.885h19.955v3.885h-5.201c-1.471,0-2.374,0.984-2.374,2.145v34.147h-4.24l-26.737-32.756
	v26.783c0,1.623,1.074,2.088,2.883,2.088h4.692v3.885H522.15v-3.885h5.145C528.764,360.563,529.781,359.578,529.781,358.418"/>
<path fill="#414142" d="M599.361,322.357c5.201,0,10.119,1.798,14.019,4.812l2.206-3.711h3.561v15.306h-4.016
	c-1.976-9.159-9.212-12.116-15.43-12.116c-12.268,0-15.32,9.275-15.32,17.566c0,8.406,3.618,16.986,16.167,16.986
	c5.427,0,12.55-2.551,12.55-7.072v-4.349c0-1.159-0.51-2.145-2.262-2.145h-5.82v-3.885h20.573v3.885h-3.278
	c-1.92,0-2.713,0.463-2.713,2.086v14.727h-3.787l-1.356-3.421c-3.39,2.725-7.856,4.405-14.698,4.405
	c-15.375,0-22.326-8.984-22.326-21.218C577.43,332.853,585.061,322.357,599.361,322.357"/>
<polyline fill="#414142" points="634.369,365.782 658.279,323.112 662.855,323.112 638.775,365.782 634.369,365.782 "/>
<path fill="#414142" d="M687.703,358.476c0,1.623,0.962,2.088,2.828,2.088h4.746v3.885h-21.705v-3.885h5.144
	c1.47,0,2.489-0.985,2.489-2.146v-28.117c0-1.16-1.02-2.145-2.489-2.145h-5.144v-3.885h21.705v3.885h-4.746
	c-1.866,0-2.828,0.521-2.828,2.086V358.476"/>
<path fill="#414142" d="M709.182,358.418v-28.117c0-1.16-1.129-2.145-2.373-2.145h-5.257v-3.885h14.583l23.967,30.146v-24.176
	c0-1.564-0.959-2.086-2.543-2.086h-5.086v-3.885h19.953v3.885h-5.201c-1.469,0-2.373,0.984-2.373,2.145v34.147h-4.24l-26.737-32.756
	v26.783c0,1.623,1.074,2.088,2.883,2.088h4.692v3.885h-19.897v-3.885h5.144C708.165,360.563,709.182,359.578,709.182,358.418"/>
<path fill="#414142" d="M778.766,322.357c5.2,0,10.23,1.739,13.905,4.812l2.315-3.768h3.506v15.362h-3.955
	c-1.979-9.159-9.329-12.116-15.375-12.116c-12.38,0-15.375,9.218-15.375,17.566s3.447,16.986,15.995,16.986
	c10.005,0,14.866-6.608,14.866-14.436h4.522c0,10.319-4.749,18.609-20.179,18.609c-15.32,0-22.158-8.986-22.158-21.16
	C756.834,332.853,764.521,322.357,778.766,322.357"/>
<path fill="#414142" d="M808.246,360.008c0-2.39,1.971-4.351,4.242-4.351c2.27,0,4.182,1.961,4.182,4.351
	c0,2.329-1.912,4.29-4.182,4.29C810.217,364.298,808.246,362.337,808.246,360.008"/>
<path fill="#34945E" d="M155.422,196.055v-1.952c0.17-2.909,1.702-3.76,3.589-4.611l8.824-2.043
	c2.924-0.741,3.588,0.246,3.588,2.228v1.773h5.885c0.8,0,1.447,0.647,1.447,1.447s-0.647,1.447-1.447,1.447h-5.885v6.298h5.885
	c0.8,0,1.447,0.647,1.447,1.446c0,0.8-0.647,1.448-1.447,1.448h-5.885v1.772c0,1.983-0.454,2.988-3.588,2.228l-8.824-2.043
	c-1.887-0.34-3.589-2.383-3.589-4.61V196.055"/>
<path fill="#34945E" d="M153.993,192.846v-0.005c-3.284-0.032-5.94-4.568-5.94-10.163v-5.374h0.003v-1.818h-0.013
	c0.002-0.135,0.008-0.268,0.008-0.402c0-10.724-6.919-19.423-15.476-19.492h-2.843c-8.556,0.069-15.476,8.769-15.476,19.492
	c0,0.135,0.006,0.268,0.008,0.402h-0.013l0.029,24.896c0,5.593-2.657,10.13-5.94,10.162h-2.844c-3.284-0.032-5.94-4.569-5.94-10.162
	v-12.929h0.028V80.401h-0.012c0.002-0.135,0.008-0.268,0.008-0.401c0-10.725-6.92-19.424-15.476-19.493h-2.381
	C73.167,60.576,66.247,69.275,66.247,80c0,0.134,0.006,0.267,0.008,0.401h-0.012v150.204c-6.309,2.158-10.847,8.136-10.847,15.176
	h32.081c0-7.353-4.948-13.544-11.694-15.44V80.401c0-5.595,2.656-10.131,5.94-10.162h2.381c3.284,0.031,5.94,4.567,5.94,10.162
	v107.052h-0.028v12.929h0.012c-0.002,0.134-0.008,0.267-0.008,0.401c0,10.724,6.92,19.424,15.476,19.492h2.844
	c8.556-0.068,15.476-8.769,15.476-19.492c0-0.135-0.024-25.298-0.024-25.298c0-5.595,2.656-10.131,5.94-10.163h2.843
	c3.284,0.032,5.941,4.568,5.941,10.163v0.235h-0.003v2.336l0.012,4.621c-0.002,0.135-0.008,0.268-0.008,0.401
	c0,10.666,6.845,19.325,15.337,19.487v0.009h5.526v-9.729H153.993"/>
<path fill="#34945E" d="M110.353,335.529l-7.761-15.018l-0.992-16.71c-0.034-1.021-0.387-1.96-0.957-2.727
	c-0.694-1.139-1.831-2.002-3.237-2.269l-44.345-10.043l-0.455-9.894l40.988,7.004c3.122,0,5.676-2.554,5.676-5.676
	c0-3.121-2.554-5.675-5.676-5.675l-45.249-6.016c-0.18,0-0.351,0.034-0.526,0.054c-0.362-0.008-0.727,0.017-1.095,0.095
	l-0.555,0.117c-2.623,0.556-4.315,3.156-3.76,5.779l1.805,19.163c0.382,1.806,1.842,3.111,3.563,3.407
	c0.241,0.093,0.489,0.173,0.751,0.223l42.892,10.829l0.89,13.606c0.018,0.553,0.148,1.073,0.337,1.563
	c0.088,0.405,0.211,0.807,0.409,1.191l9.759,18.884c0.197,0.38,0.45,0.709,0.726,1.013c0.526,0.582,1.174,1.017,1.888,1.286
	c15.67,11.152,25.939,29.732,25.939,50.782c0,34.115-26.949,61.765-60.193,61.765c-33.243,0-60.192-27.649-60.192-61.765
	c0-21.163,10.377-39.834,26.189-50.965c0.373-0.262,0.752-0.515,1.13-0.768c0.416-0.379,0.783-0.822,1.056-1.349l7.931-17.345
	l1.745-3.378c1.354-2.62,0.319-5.873-2.302-7.228l-0.554-0.286c-2.62-1.354-5.873-0.318-7.227,2.303l-7.222,18.22
	C12.604,348.801,0,371.138,0,396.501c0,40.335,31.866,73.045,71.175,73.045c39.31,0,71.176-32.71,71.176-73.045
	C142.351,371.021,129.627,348.598,110.353,335.529"/>
<path fill="#34945E" d="M92.097,259.6c0-1.13-0.398-2.157-1.039-2.987c-0.623-0.955-1.631-1.635-2.825-1.806
	c-0.049-0.01-0.099-0.017-0.149-0.026c-0.034-0.003-0.065-0.016-0.1-0.019l-0.156-0.007c-0.212-0.027-0.422-0.064-0.642-0.064
	c-0.076,0-0.147,0.019-0.223,0.021l-31.762-1.55c-1.179-0.093-2.259,0.463-2.911,1.358c-0.632,0.703-1.027,1.623-1.027,2.644
	c0,1.003,0.383,1.908,0.996,2.607c0.051,0.064,0.101,0.129,0.156,0.189c0.011,0.01,0.021,0.021,0.032,0.03
	c0.332,0.355,0.742,0.633,1.205,0.814c0.033,0.015,0.066,0.026,0.099,0.039c0.1,0.036,0.2,0.069,0.305,0.096
	c0.375,0.117,1.29,0.185,1.346,0.182c0,0,31.381,3.389,31.784,3.389c0.117,0,0.226-0.025,0.341-0.033
	c1.114,0.002,2.133-0.448,2.877-1.195C91.433,262.382,92.097,261.075,92.097,259.6"/>
<path fill="#C98028" d="M111.05,401.975l-11.434-11.464c-0.217-0.227-0.468-0.396-0.729-0.536c-0.466-0.372-1.04-0.61-1.672-0.637
	l-11.997,0.094c-1.296-0.053-2.399,0.99-2.451,2.317c-0.052,1.328,0.966,2.458,2.262,2.511l10.97,1.018l10.471,11.315
	c1.24,1.29,3.285,1.307,4.544,0.036C112.274,405.359,112.29,403.265,111.05,401.975"/>
<path fill="#C98028" d="M58.045,391.749c-0.052-1.327-1.155-2.37-2.451-2.317l-11.998-0.094c-0.631,0.026-1.205,0.265-1.671,0.637
	c-0.262,0.141-0.512,0.31-0.729,0.536l-11.434,11.464c-1.24,1.29-1.224,3.385,0.035,4.654c1.26,1.271,3.305,1.254,4.545-0.036
	l10.471-11.315l10.97-1.018C57.079,394.207,58.097,393.077,58.045,391.749"/>
<path fill="#C98028" d="M59.276,403.669c1.031-0.921,1.143-2.536,0.247-3.588c-0.895-1.052-2.471-1.16-3.503-0.239l-9.211,7.618
	c-0.152,0.136-0.287,0.284-0.405,0.443c-0.571,0.596-0.909,1.421-0.846,2.311l0.192,22.232c0.142,1.979,1.844,3.479,3.783,3.33
	c1.94-0.15,3.411-1.9,3.269-3.891l-1.313-20.683L59.276,403.669"/>
<path fill="#C98028" d="M93.936,407.46l-9.211-7.618c-1.032-0.921-2.608-0.812-3.504,0.239c-0.895,1.052-0.784,2.667,0.248,3.588
	l7.787,7.534l-1.314,20.683c-0.141,1.99,1.33,3.74,3.269,3.891c1.94,0.149,3.642-1.351,3.783-3.33l0.193-22.232
	c0.063-0.89-0.275-1.715-0.846-2.311C94.223,407.744,94.088,407.596,93.936,407.46"/>
<path fill="#C98028" d="M82.267,380.383c-1.2,0.287-1.952,1.528-1.671,2.757c0.281,1.229,1.492,2,2.692,1.713l7.734-1.803
	c0.579-0.139,1.076-0.449,1.457-0.865c0.514-0.391,0.915-0.945,1.09-1.626l7.476-19.061c0.493-1.926-0.642-3.915-2.523-4.42
	s-3.823,0.658-4.315,2.584l-5.91,17.896L82.267,380.383"/>
<path fill="#C98028" d="M46.839,380.559c0.174,0.681,0.575,1.235,1.089,1.626c0.381,0.416,0.878,0.727,1.457,0.865l7.734,1.803
	c1.2,0.287,2.412-0.483,2.692-1.713c0.281-1.229-0.471-2.47-1.671-2.757l-6.03-2.825l-5.909-17.896
	c-0.493-1.926-2.435-3.089-4.316-2.584c-1.88,0.505-3.016,2.494-2.523,4.42L46.839,380.559"/>
<path fill="#C98028" d="M61.196,391.839c0,7.238,4.091,13.105,9.137,13.105c5.047,0,9.137-5.867,9.137-13.105
	s-4.09-13.105-9.137-13.105C65.287,378.733,61.196,384.601,61.196,391.839"/>
<path fill="#C98028" d="M74.524,408.815c-0.773-0.118-3.378-2.06-4.191-2.06c-0.875,0-3.67,1.95-4.499,2.087
	c-6.232,1.026-8.326,6.493-8.326,16.123c0,1.11-0.57,2.311-0.376,3.41c1.42,11.771,10.639,17.49,13.201,17.49
	c2.264,0,11.716-5.72,13.201-17.49c0.194-1.1-0.375-2.3-0.375-3.41C83.159,415.246,80.844,409.776,74.524,408.815"/>
<path fill="#C98028" d="M51.533,338.256c4.158,0,8.869,5.873,10.957,13.661c0.419,1.562,0.7,3.147,0.868,4.705
	c-2.879,1.911-5.248,5.407-5.248,8.896c0,5.217,3.999,9.55,9.663,10.48c0.732,0.162,1.781,1.035,2.56,1.035
	c0.78,0,1.651-0.755,2.383-0.917c5.665-0.93,9.841-5.382,9.841-10.599c0-3.498-2.381-7.002-5.27-8.909
	c0.168-1.555,0.45-3.136,0.867-4.692c2.088-7.788,6.799-13.661,10.957-13.661c0.386,0,0.766,0.051,1.132,0.152l-0.032-0.27
	c-0.132-0.07-0.265-0.14-0.408-0.193c-0.545-0.203-1.126-0.307-1.726-0.307c-4.401,0-9.539,5.471-12.215,13.005
	c-0.469,1.321-0.836,2.648-1.104,3.985c-1.303-0.972-2.769-1.78-4.425-1.78c-1.659,0-3.127,0.812-4.432,1.786
	c-0.278-1.329-0.648-2.662-1.119-3.991c-2.676-7.534-7.813-13.005-12.215-13.005c-0.6,0-1.181,0.104-1.726,0.307
	c-0.143,0.054-0.276,0.123-0.521,0.252l0.081,0.211C50.767,338.307,51.147,338.256,51.533,338.256"/>
</svg>
