<?xml version="1.0" encoding="utf-8"?>
<!-- Generator: Adobe Illustrator 15.1.0, SVG Export Plug-In . SVG Version: 6.00 Build 0)  -->
<!DOCTYPE svg PUBLIC "-//W3C//DTD SVG 1.1//EN" "http://www.w3.org/Graphics/SVG/1.1/DTD/svg11.dtd">
<svg version="1.1" id="Layer_1" xmlns="http://www.w3.org/2000/svg" xmlns:xlink="http://www.w3.org/1999/xlink" x="0px" y="0px"
	 width="1178.256px" height="419.886px" viewBox="0 0 1178.256 419.886" enable-background="new 0 0 1178.256 419.886"
	 xml:space="preserve">
<path fill="#C7802A" d="M74.753,188.581c-18.135,2.655-50.426,10.838-50.426,27.645c0,9.29,7.741,16.809,19.464,16.809
	c11.942,0,23.221-3.539,30.962-9.51c0.663,5.752,0.442,11.279,2.212,17.029c-11.059,6.636-25.656,10.395-37.598,10.395
	C17.029,250.948,0,240.776,0,220.429c0-18.578,13.934-30.078,33.395-36.713c12.828-4.422,27.867-7.078,41.358-8.625V188.581z
	 M49.541,143.465c-7.077,0.221-13.27,1.326-18.8,4.201c5.309,2.434,7.741,5.971,7.741,10.839c0,8.402-6.414,13.489-15.04,13.489
	c-11.942,0-16.586-6.633-16.586-16.145c0-19.02,23.664-25.655,42.685-26.982V143.465z M123.408,216.112h13.27v15.816
	c0,13.933-11.943,19.02-22.336,19.02c-23.444,0-28.53-7.077-28.53-26.76v-58.828c0-14.819-7.741-20.792-25.214-21.675v-15.039
	c21.674,0.664,47.771,7.52,47.771,29.858v70.99c0,3.762,0.885,6.415,7.519,6.415c7.52,0,7.52-4.202,7.52-10.173V216.112z"/>
<path fill="#C7802A" d="M146.417,247.189v-13.491h14.597c6.413,0,7.96-2.212,7.96-8.184v-73.647c0-4.643-3.98-5.75-6.413-5.75
	h-18.135v-12.605l48.656-3.76v95.542c0,6.191,3.318,8.403,8.404,8.403h15.261v13.491H146.417z M236.871,247.189v-13.491h13.27
	c6.634,0,7.962-2.655,7.962-8.184v-56.617c0-16.366-13.049-22.116-26.318-22.116c-9.953,0-20.127,3.761-27.645,9.511v-16.81
	c9.287-6.856,20.789-10.393,34.501-10.393c21.01,0,42.905,10.615,42.905,34.501v61.924c0,5.972,3.538,8.184,7.52,8.184h15.48v13.491
	H236.871z"/>
<path fill="#C7802A" d="M345.105,250.729c-18.579-0.664-26.318-7.079-26.318-21.013v-83.6h-22.559v-12.162
	c24.548-0.885,29.856-15.483,29.856-45.782h16.366v45.118h26.62v12.826h-26.62v83.378c0,1.992,0.885,3.761,2.655,4.867V250.729z
	 M356.162,235.247c2.655-1.107,4.424-3.097,4.424-5.752v-13.383h13.049v15.816c0,10.174-9.29,15.261-17.473,17.474V235.247z"/>
<path fill="#30925E" d="M522.687,133.291v-24.99c0-19.907,13.933-28.972,31.625-31.627v13.49c-5.529,2.655-8.183,7.962-8.183,14.598
	v29.113h38.483v12.828h-38.483v78.593c0,6.191,3.097,8.403,8.404,8.403h21.895v13.491h-77.406v-13.491h14.818
	c2.433,0,8.404-1.327,8.404-8.403v-79.177L522.687,133.291z M565.371,75.788c18.577,0,34.28,7.299,34.28,20.79
	c0,10.838-8.184,15.703-15.924,15.703c-7.299,0-14.376-4.423-14.376-12.385c0-3.318,1.549-6.856,4.865-10.396
	c-2.21-1.328-5.086-1.768-8.845-1.768V75.788z"/>
<path fill="#30925E" d="M664.718,188.581c-18.136,2.655-50.427,10.838-50.427,27.645c0,9.29,7.741,16.809,19.464,16.809
	c11.942,0,23.223-3.539,30.963-9.51c0.662,5.752,0.443,11.279,2.212,17.029c-11.06,6.636-25.656,10.395-37.6,10.395
	c-22.337,0-39.365-10.172-39.365-30.52c0-18.578,13.935-30.078,33.395-36.713c12.828-4.422,27.867-7.078,41.358-8.625V188.581z
	 M639.506,143.465c-7.078,0.221-13.269,1.326-18.801,4.201c5.309,2.434,7.741,5.971,7.741,10.839c0,8.402-6.414,13.489-15.04,13.489
	c-11.942,0-16.586-6.633-16.586-16.145c0-19.02,23.665-25.655,42.686-26.982V143.465z M713.373,216.112h13.269v15.816
	c0,13.933-11.941,19.02-22.334,19.02c-23.444,0-28.53-7.077-28.53-26.76v-58.828c0-14.819-7.741-20.792-25.212-21.675v-15.039
	c21.672,0.664,47.769,7.52,47.769,29.858v70.99c0,3.762,0.885,6.415,7.521,6.415c7.518,0,7.518-4.202,7.518-10.173V216.112z"/>
<path fill="#30925E" d="M736.414,247.189v-13.49h14.378c2.873,0,8.402-1.327,8.402-8.404v-73.428c0-4.644-3.54-5.75-5.529-5.75
	h-19.239v-12.605l48.652-3.98v95.763c0,6.192,2.878,8.404,8.406,8.404h23.665v13.49H736.414z M794.139,141.252
	c7.295-6.856,17.689-11.721,32.729-11.721c16.366,0,26.539,7.52,26.539,21.231c0,11.942-8.402,17.249-16.586,17.249
	c-7.299,0-14.374-4.422-14.374-12.827c0-4.644,3.536-9.068,7.075-12.163c-1.546-0.222-3.315-0.443-4.867-0.443
	c-10.834,0-22.337,6.856-30.517,16.143V141.252z"/>
<path fill="#30925E" d="M863.232,247.189v-13.491h14.82c6.414,0,7.96-2.433,7.96-8.846v-72.985c0-4.643-4.201-5.75-6.193-5.75
	h-18.356v-12.605l48.658-3.76v95.542c0,6.191,3.315,8.403,8.401,8.403h15.264v13.491H863.232z M951.917,247.189v-13.491h13.27
	c4.867,0,7.521-1.769,7.521-7.076v-62.147c0-11.943-12.827-17.694-25.654-17.694c-9.51,0-19.021,3.318-25.877,8.626v-15.925
	c9.068-6.634,20.349-10.393,34.722-10.393c19.684,0,40.918,10.836,40.918,30.298v67.899c0,2.873,3.315,6.412,7.074,6.412h16.367
	v13.491H951.917z M1038.394,247.189v-13.491h13.271c4.201,0,7.74-1.105,7.74-6.635v-60.377c0-11.943-10.838-19.905-26.319-19.905
	c-9.511,0-18.579,3.761-25.212,9.511v-17.251c7.741-5.971,18.136-9.951,31.848-9.951c20.788,0,43.125,10.393,43.125,34.501v63.696
	c0,2.873,3.098,6.412,7.299,6.412h15.701v13.491H1038.394z"/>
<path fill="#FFFFFF" d="M535.709,268.798c5.338,0,10.502,1.786,14.275,4.939l2.379-3.868h3.597v15.771h-4.062
	c-2.031-9.401-9.574-12.438-15.783-12.438c-12.707,0-15.782,9.464-15.782,18.033s3.539,17.438,16.421,17.438
	c10.27,0,15.261-6.784,15.261-14.818h4.642c0,10.593-4.875,19.103-20.716,19.103c-15.725,0-22.746-9.225-22.746-21.722
	C513.195,279.57,521.087,268.798,535.709,268.798"/>
<path fill="#FFFFFF" d="M587.64,268.977c14.913,0,23.442,8.986,23.442,21.661c0,12.915-8.646,22.318-24.371,22.318
	c-13.055,0-23.384-8.212-23.384-21.603C563.327,278.856,570.174,268.977,587.64,268.977 M587,308.73
	c13.231,0,16.538-8.927,16.538-17.912c0-8.808-3.249-17.735-16.015-17.735c-13.346,0-17.001,9.105-17.001,18.032
	C570.522,300.28,573.712,308.73,587,308.73"/>
<path fill="#FFFFFF" d="M624.6,305.815v-28.864c0-1.19-1.16-2.2-2.438-2.2h-5.396v-3.988h14.971l24.604,30.947v-24.818
	c0-1.605-0.986-2.141-2.612-2.141h-5.221v-3.988h20.481v3.988h-5.338c-1.508,0-2.437,1.01-2.437,2.2v35.054h-4.353l-27.445-33.625
	v27.494c0,1.668,1.102,2.144,2.959,2.144h4.815v3.987h-20.425v-3.987h5.281C623.555,308.018,624.6,307.005,624.6,305.815"/>
<path fill="#FFFFFF" d="M709.721,285.938h-4.003c-1.161-7.261-6.557-12.318-14.738-12.318c-4.933,0-9.458,1.726-9.458,6.308
	c0,2.084,1.16,4.047,4.758,4.998l14.158,3.869c6.035,1.668,11.258,3.631,11.258,11.367c0,8.749-8.531,12.797-17.062,12.797
	c-5.164,0-10.327-1.488-13.636-4.346l-2.321,3.451h-3.424v-15.77h3.831c2.321,7.2,5.396,12.199,15.145,12.199
	c5.396,0,11.373-2.084,11.373-7.082c0-2.38-1.567-4.284-4.41-5l-17.408-4.402c-6.382-1.607-8.82-6.666-8.82-10.475
	c0-7.915,7.719-12.141,16.073-12.141c4.701,0,8.82,1.607,13.057,4.164l2.263-3.213h3.365V285.938z"/>
<path fill="#FFFFFF" d="M761.653,276.892v21.961c0,11.725-9.4,14.283-16.887,14.283c-8.877,0-19.495-0.894-19.495-13.569v-22.675
	c0-1.189-0.987-2.143-2.611-2.143h-5.339v-3.986h22.05v3.986h-4.41c-1.914,0-3.017,0.477-3.017,2.143v22.08
	c0,8.689,7.717,9.403,13.172,9.403c5.105,0,11.49-0.952,11.49-9.999v-21.484c0-1.666-1.045-2.143-2.96-2.143h-4.816v-3.986h20.599
	v3.986h-5.164C762.639,274.749,761.653,275.702,761.653,276.892"/>
<path fill="#FFFFFF" d="M791.939,274.749c-1.915,0-2.9,0.537-2.9,2.143v31.125h14.68c7.253,0,8.124-6.486,8.414-12.914h3.889v16.902
	h-41.489v-3.988h5.339c1.45,0,2.495-1.012,2.495-2.201v-28.864c0-1.188-1.045-2.202-2.554-2.202h-5.28v-3.986h23.036v3.986H791.939z
	"/>
<path fill="#FFFFFF" d="M842.071,305.874c0,1.668,0.987,2.144,2.903,2.144h4.814v3.987h-22.282v-3.987h5.281
	c1.51,0,2.554-1.013,2.554-2.202v-30.947h-4.583c-7.602,0-8.24,4.702-9.053,11.189h-3.773v-15.295h41.664v15.295h-3.713
	c-0.87-6.487-1.452-11.189-8.938-11.189h-4.875V305.874z"/>
<path fill="#FFFFFF" d="M879.67,305.874c0,1.668,0.987,2.144,2.903,2.144h4.873v3.987h-22.282v-3.987h5.281
	c1.508,0,2.554-1.013,2.554-2.202v-28.864c0-1.19-1.046-2.202-2.554-2.202h-5.281v-3.986h22.282v3.986h-4.873
	c-1.916,0-2.903,0.537-2.903,2.143V305.874z"/>
<path fill="#FFFFFF" d="M901.719,305.815v-28.864c0-1.19-1.159-2.2-2.437-2.2h-5.396v-3.988h14.97l24.604,30.947v-24.818
	c0-1.605-0.985-2.141-2.611-2.141h-5.221v-3.988h20.482v3.988h-5.339c-1.508,0-2.437,1.01-2.437,2.2v35.054h-4.353l-27.446-33.625
	v27.494c0,1.668,1.103,2.144,2.96,2.144h4.815v3.987h-20.425v-3.987h5.281C900.675,308.018,901.719,307.005,901.719,305.815"/>
<path fill="#FFFFFF" d="M973.146,268.798c5.339,0,10.387,1.846,14.39,4.939l2.266-3.809h3.653v15.711h-4.121
	c-2.028-9.401-9.456-12.438-15.839-12.438c-12.593,0-15.727,9.522-15.727,18.033c0,8.63,3.714,17.438,16.596,17.438
	c5.571,0,12.882-2.619,12.882-7.261v-4.463c0-1.189-0.522-2.201-2.321-2.201h-5.975v-3.988h21.12v3.988h-3.365
	c-1.972,0-2.785,0.475-2.785,2.141v15.117h-3.888l-1.393-3.513c-3.48,2.799-8.066,4.523-15.088,4.523
	c-15.783,0-22.918-9.224-22.918-21.781C950.633,279.57,958.465,268.798,973.146,268.798"/>
<polygon fill="#FFFFFF" points="1009.083,313.374 1033.625,269.573 1038.325,269.573 1013.606,313.374 "/>
<path fill="#FFFFFF" d="M1063.832,305.874c0,1.668,0.986,2.144,2.902,2.144h4.873v3.987h-22.282v-3.987h5.281
	c1.508,0,2.555-1.013,2.555-2.202v-28.864c0-1.19-1.047-2.202-2.555-2.202h-5.281v-3.986h22.282v3.986h-4.873
	c-1.916,0-2.902,0.537-2.902,2.143V305.874z"/>
<path fill="#FFFFFF" d="M1085.879,305.815v-28.864c0-1.19-1.158-2.2-2.437-2.2h-5.396v-3.988h14.97l24.603,30.947v-24.818
	c0-1.605-0.984-2.141-2.611-2.141h-5.221v-3.988h20.483v3.988h-5.339c-1.508,0-2.438,1.01-2.438,2.2v35.054h-4.352l-27.447-33.625
	v27.494c0,1.668,1.104,2.144,2.96,2.144h4.816v3.987h-20.425v-3.987h5.28C1084.835,308.018,1085.879,307.005,1085.879,305.815"/>
<path fill="#FFFFFF" d="M1157.309,268.798c5.339,0,10.502,1.786,14.274,4.939l2.377-3.868h3.599v15.771h-4.061
	c-2.031-9.401-9.576-12.438-15.783-12.438c-12.707,0-15.781,9.464-15.781,18.033s3.538,17.438,16.418,17.438
	c10.271,0,15.263-6.784,15.263-14.818h4.642c0,10.593-4.875,19.103-20.715,19.103c-15.726,0-22.746-9.225-22.746-21.722
	C1134.795,279.57,1142.688,268.798,1157.309,268.798"/>
<path fill="#30925E" d="M517.428,139.144v-2.006c0.175-2.985,1.747-3.857,3.684-4.731l9.059-2.098
	c3.002-0.76,3.684,0.252,3.684,2.286v1.821h6.04c0.821,0,1.486,0.666,1.486,1.486c0,0.82-0.665,1.485-1.486,1.485h-6.04v6.465h6.04
	c0.821,0,1.486,0.666,1.486,1.486c0,0.82-0.665,1.485-1.486,1.485h-6.04v1.82c0,2.034-0.467,3.066-3.684,2.285l-9.059-2.096
	c-1.937-0.35-3.684-2.446-3.684-4.734v-1.64V139.144z"/>
<path fill="#30925E" d="M515.962,135.85v-0.005c-3.371-0.033-6.098-4.689-6.098-10.431v-5.518h0.003v-1.868h-0.013
	c0.002-0.138,0.008-0.273,0.008-0.412c0-11.009-7.103-19.939-15.886-20.009h-2.919c-8.783,0.07-15.887,9-15.887,20.009
	c0,0.139,0.006,0.274,0.009,0.412h-0.013l0.029,25.559c0,5.741-2.727,10.398-6.098,10.431h-2.919
	c-3.371-0.033-6.097-4.69-6.097-10.431v-13.272h0.029V20.422h-0.013c0.002-0.138,0.008-0.274,0.008-0.412
	c0-11.009-7.103-19.939-15.886-20.01h-2.445c-8.783,0.071-15.886,9.001-15.886,20.01c0,0.138,0.006,0.274,0.008,0.412h-0.012
	v154.188c-6.478,2.215-11.135,8.352-11.135,15.579h32.932c0-7.547-5.079-13.904-12.004-15.85V38.461V20.422
	c0-5.743,2.727-10.4,6.097-10.432h2.445c3.371,0.032,6.097,4.689,6.097,10.432v18.039v91.853h-0.029v13.272h0.013
	c-0.002,0.136-0.008,0.272-0.008,0.411c0,11.009,7.103,19.939,15.886,20.009h2.919c8.784-0.07,15.887-9,15.887-20.009
	c0-0.139-0.025-25.97-0.025-25.97c0-5.742,2.727-10.398,6.098-10.432h2.919c3.371,0.034,6.098,4.69,6.098,10.432v0.242h-0.003v2.399
	l0.013,4.744c-0.002,0.137-0.009,0.272-0.009,0.411c0,10.949,7.027,19.837,15.744,20.004v0.009h5.673v-9.988H515.962z"/>
<path fill="#30925E" d="M471.164,282.318l-7.966-15.415l-1.019-17.154c-0.035-1.049-0.398-2.011-0.982-2.8
	c-0.712-1.169-1.88-2.054-3.323-2.327l-45.522-10.309l-0.467-10.158l42.076,7.19c3.205,0,5.826-2.621,5.826-5.825
	c0-3.205-2.621-5.827-5.826-5.827l-46.45-6.175c-0.185,0-0.36,0.035-0.54,0.056c-0.371-0.008-0.746,0.017-1.123,0.098l-0.57,0.12
	c-2.693,0.57-4.43,3.24-3.86,5.933l1.853,19.671c0.392,1.854,1.891,3.195,3.657,3.498c0.247,0.096,0.502,0.178,0.771,0.229
	l44.03,11.116l0.913,13.967c0.019,0.567,0.153,1.102,0.346,1.605c0.091,0.416,0.217,0.826,0.421,1.222l1.589,3.075l8.429,16.311
	c0.201,0.39,0.461,0.728,0.744,1.039c0.541,0.598,1.205,1.043,1.939,1.32c16.085,11.449,26.627,30.521,26.627,52.13
	c0,35.02-27.664,63.408-61.79,63.408c-34.125,0-61.789-28.389-61.789-63.408c0-21.724,10.652-40.891,26.884-52.317
	c0.382-0.269,0.771-0.527,1.16-0.789c0.427-0.389,0.804-0.842,1.084-1.383l8.141-17.807l1.792-3.466
	c1.39-2.69,0.327-6.029-2.363-7.419l-0.569-0.294c-2.69-1.392-6.029-0.327-7.419,2.363l-7.414,18.704
	c-19.633,13.441-32.57,36.371-32.57,62.407c0,41.409,32.711,74.978,73.063,74.978s73.064-33.568,73.064-74.978
	C504.011,318.752,490.95,295.734,471.164,282.318"/>
<path fill="#30925E" d="M452.424,204.375c0-1.159-0.408-2.214-1.066-3.067c-0.64-0.98-1.675-1.678-2.9-1.853
	c-0.051-0.01-0.102-0.018-0.153-0.027c-0.035-0.004-0.067-0.017-0.103-0.018l-0.16-0.008c-0.218-0.029-0.433-0.066-0.659-0.066
	c-0.078,0-0.151,0.019-0.229,0.022l-32.605-1.591c-1.21-0.096-2.319,0.475-2.988,1.395c-0.649,0.722-1.054,1.667-1.054,2.714
	c0,1.03,0.393,1.958,1.022,2.676c0.052,0.066,0.104,0.132,0.161,0.194c0.01,0.011,0.021,0.021,0.032,0.031
	c0.341,0.365,0.762,0.649,1.237,0.836c0.034,0.015,0.068,0.026,0.102,0.041c0.103,0.036,0.205,0.071,0.313,0.097
	c0.385,0.121,1.324,0.19,1.382,0.187c0,0,32.213,3.479,32.627,3.479c0.12,0,0.232-0.027,0.35-0.035
	c1.143,0.001,2.189-0.46,2.954-1.226C451.743,207.232,452.424,205.89,452.424,204.375"/>
<path fill="#C7802A" d="M471.879,350.528l-11.737-11.77c-0.223-0.232-0.48-0.406-0.749-0.551c-0.477-0.383-1.066-0.627-1.715-0.654
	l-12.316,0.098c-1.33-0.055-2.463,1.017-2.516,2.379c-0.054,1.363,0.991,2.522,2.322,2.578l11.261,1.043l10.749,11.617
	c1.273,1.323,3.372,1.34,4.665,0.035C473.136,354.001,473.152,351.853,471.879,350.528"/>
<path fill="#C7802A" d="M417.468,340.03c-0.053-1.363-1.186-2.433-2.517-2.379l-12.315-0.096c-0.649,0.026-1.238,0.271-1.715,0.652
	c-0.269,0.145-0.526,0.318-0.75,0.551l-11.736,11.77c-1.273,1.322-1.257,3.473,0.036,4.777c1.293,1.303,3.392,1.286,4.665-0.037
	l10.749-11.617l11.261-1.043C416.477,342.554,417.521,341.394,417.468,340.03"/>
<path fill="#C7802A" d="M418.732,352.266c1.059-0.946,1.173-2.603,0.254-3.683s-2.537-1.19-3.596-0.244l-9.455,7.819
	c-0.156,0.139-0.295,0.291-0.416,0.454c-0.586,0.611-0.934,1.459-0.869,2.373l0.198,22.818c0.145,2.039,1.892,3.578,3.883,3.42
	c1.991-0.156,3.501-1.951,3.356-3.988L410.739,360L418.732,352.266z"/>
<path fill="#C7802A" d="M454.312,356.157l-9.455-7.82c-1.059-0.944-2.678-0.834-3.597,0.246s-0.804,2.738,0.255,3.683l7.993,7.734
	l-1.348,21.234c-0.145,2.038,1.365,3.833,3.356,3.99c1.99,0.157,3.738-1.382,3.883-3.421l0.197-22.818
	c0.065-0.915-0.282-1.762-0.868-2.373C454.606,356.449,454.467,356.298,454.312,356.157"/>
<path fill="#C7802A" d="M442.333,328.362c-1.232,0.295-2.004,1.568-1.716,2.83s1.532,2.053,2.764,1.758l7.938-1.851
	c0.595-0.142,1.106-0.46,1.496-0.886c0.528-0.402,0.94-0.973,1.119-1.671l7.674-19.566c0.506-1.978-0.659-4.019-2.589-4.538
	c-1.931-0.518-3.924,0.676-4.43,2.652l-6.067,18.371L442.333,328.362z"/>
<path fill="#C7802A" d="M405.965,328.543c0.179,0.698,0.59,1.269,1.119,1.671c0.39,0.424,0.901,0.744,1.496,0.887l7.938,1.849
	c1.232,0.296,2.476-0.494,2.764-1.757c0.288-1.262-0.484-2.534-1.716-2.83l-6.189-2.9l-6.067-18.37
	c-0.506-1.977-2.499-3.171-4.43-2.653c-1.93,0.52-3.096,2.562-2.59,4.538L405.965,328.543z"/>
<path fill="#C7802A" d="M420.703,340.122c0,7.43,4.199,13.452,9.379,13.452c5.181,0,9.38-6.022,9.38-13.452
	s-4.199-13.453-9.38-13.453C424.902,326.669,420.703,332.692,420.703,340.122"/>
<path fill="#C7802A" d="M434.385,357.549c-0.794-0.121-3.467-2.114-4.302-2.114c-0.899,0-3.768,2.003-4.619,2.143
	c-6.397,1.055-8.547,6.671-8.547,16.553c0,1.141-0.584,2.371-0.386,3.5c1.458,12.078,10.922,17.949,13.552,17.949
	c2.324,0,12.026-5.871,13.551-17.949c0.199-1.129-0.385-2.359-0.385-3.5C443.249,364.154,440.872,358.534,434.385,357.549"/>
<path fill="#C7802A" d="M410.784,285.118c4.269,0,9.104,6.028,11.248,14.021c0.43,1.604,0.719,3.232,0.891,4.832
	c-2.955,1.961-5.387,5.55-5.387,9.133c0,5.354,4.104,9.803,9.919,10.757c0.752,0.167,1.828,1.063,2.628,1.063
	c0.8,0,1.694-0.775,2.446-0.941c5.815-0.955,10.102-5.525,10.102-10.879c0-3.592-2.445-7.188-5.41-9.146
	c0.173-1.596,0.462-3.219,0.89-4.818c2.144-7.993,6.979-14.021,11.248-14.021c0.396,0,0.787,0.051,1.162,0.156l-0.032-0.277
	c-0.136-0.072-0.273-0.144-0.42-0.199c-0.559-0.207-1.155-0.312-1.771-0.312c-4.519,0-9.793,5.614-12.539,13.35
	c-0.481,1.355-0.859,2.718-1.134,4.09c-1.338-0.996-2.842-1.828-4.542-1.828c-1.703,0-3.21,0.834-4.55,1.834
	c-0.286-1.363-0.665-2.732-1.148-4.096c-2.747-7.735-8.021-13.35-12.54-13.35c-0.616,0-1.212,0.105-1.772,0.312
	c-0.146,0.056-0.283,0.127-0.534,0.26l0.083,0.217C409.997,285.169,410.388,285.118,410.784,285.118"/>
</svg>
