<?xml version="1.0" encoding="utf-8"?>
<!-- Generator: Adobe Illustrator 15.1.0, SVG Export Plug-In . SVG Version: 6.00 Build 0)  -->
<!DOCTYPE svg PUBLIC "-//W3C//DTD SVG 1.1//EN" "http://www.w3.org/Graphics/SVG/1.1/DTD/svg11.dtd">
<svg version="1.1" id="Layer_1" xmlns="http://www.w3.org/2000/svg" xmlns:xlink="http://www.w3.org/1999/xlink" x="0px" y="0px"
	 width="85.332px" height="111.094px" viewBox="0 0 85.332 111.094" enable-background="new 0 0 85.332 111.094"
	 xml:space="preserve">
<path fill="#C6802A" d="M84.388,66.043l-11.737-11.77c-0.224-0.232-0.479-0.406-0.749-0.551c-0.477-0.383-1.066-0.627-1.715-0.654
	l-12.316,0.098c-1.33-0.055-2.463,1.017-2.516,2.379c-0.055,1.363,0.99,2.522,2.322,2.578l11.261,1.043l10.749,11.617
	c1.273,1.323,3.372,1.34,4.665,0.035C85.645,69.516,85.661,67.368,84.388,66.043"/>
<path fill="#C6802A" d="M29.977,55.545c-0.053-1.363-1.186-2.433-2.517-2.379l-12.315-0.096c-0.649,0.026-1.238,0.271-1.715,0.652
	c-0.269,0.145-0.526,0.318-0.75,0.551L0.944,66.043c-1.273,1.322-1.257,3.473,0.036,4.777c1.293,1.303,3.392,1.286,4.665-0.037
	l10.749-11.617l11.261-1.043C28.985,58.069,30.03,56.909,29.977,55.545"/>
<path fill="#C6802A" d="M31.241,67.781c1.059-0.946,1.173-2.603,0.254-3.683s-2.537-1.19-3.596-0.244l-9.455,7.819
	c-0.156,0.139-0.295,0.291-0.416,0.454c-0.586,0.611-0.934,1.459-0.869,2.373l0.198,22.818c0.145,2.039,1.892,3.578,3.883,3.42
	c1.991-0.156,3.501-1.951,3.356-3.988l-1.348-21.235L31.241,67.781z"/>
<path fill="#C6802A" d="M66.82,71.672l-9.455-7.82c-1.059-0.944-2.678-0.834-3.597,0.246s-0.804,2.738,0.255,3.683l7.993,7.734
	L60.667,96.75c-0.145,2.038,1.365,3.833,3.356,3.99c1.99,0.157,3.738-1.382,3.884-3.421L68.104,74.5
	c0.065-0.915-0.282-1.762-0.868-2.373C67.115,71.964,66.976,71.813,66.82,71.672"/>
<path fill="#C6802A" d="M54.842,43.877c-1.231,0.295-2.004,1.568-1.716,2.83s1.532,2.053,2.764,1.758l7.938-1.851
	c0.595-0.142,1.106-0.46,1.496-0.886c0.528-0.402,0.94-0.973,1.118-1.671l7.675-19.566c0.506-1.978-0.659-4.019-2.589-4.538
	c-1.932-0.518-3.924,0.676-4.43,2.652l-6.068,18.371L54.842,43.877z"/>
<path fill="#C6802A" d="M18.474,44.058c0.179,0.698,0.59,1.269,1.119,1.671c0.39,0.424,0.901,0.744,1.496,0.887l7.938,1.849
	c1.232,0.296,2.476-0.494,2.764-1.757c0.288-1.262-0.484-2.534-1.716-2.83l-6.189-2.9l-6.067-18.37
	c-0.506-1.977-2.499-3.171-4.43-2.653c-1.93,0.52-3.096,2.562-2.59,4.538L18.474,44.058z"/>
<path fill="#C6802A" d="M33.212,55.637c0,7.43,4.199,13.452,9.379,13.452c5.181,0,9.38-6.022,9.38-13.452s-4.199-13.453-9.38-13.453
	C37.411,42.184,33.212,48.208,33.212,55.637"/>
<path fill="#C6802A" d="M46.894,73.064c-0.795-0.121-3.467-2.114-4.302-2.114c-0.899,0-3.768,2.003-4.619,2.143
	c-6.397,1.055-8.547,6.671-8.547,16.553c0,1.141-0.584,2.371-0.386,3.5c1.458,12.078,10.922,17.949,13.552,17.949
	c2.324,0,12.026-5.871,13.55-17.949c0.199-1.129-0.385-2.359-0.385-3.5C55.757,79.669,53.38,74.049,46.894,73.064"/>
<path fill="#C6802A" d="M23.292,0.633c4.269,0,9.104,6.028,11.248,14.021c0.43,1.604,0.719,3.232,0.891,4.832
	c-2.955,1.961-5.387,5.55-5.387,9.133c0,5.354,4.104,9.803,9.919,10.757c0.752,0.167,1.828,1.063,2.628,1.063
	c0.801,0,1.694-0.775,2.446-0.941c5.815-0.955,10.103-5.525,10.103-10.879c0-3.592-2.445-7.188-5.41-9.146
	c0.172-1.596,0.461-3.219,0.89-4.818c2.144-7.993,6.979-14.021,11.248-14.021c0.396,0,0.786,0.051,1.161,0.156l-0.031-0.277
	c-0.137-0.072-0.273-0.144-0.42-0.199C62.019,0.106,61.422,0,60.806,0c-4.519,0-9.793,5.614-12.539,13.35
	c-0.48,1.355-0.858,2.718-1.134,4.09c-1.338-0.996-2.842-1.828-4.542-1.828c-1.703,0-3.21,0.834-4.55,1.834
	c-0.286-1.363-0.665-2.732-1.148-4.096C34.146,5.615,28.873,0,24.354,0c-0.616,0-1.212,0.105-1.772,0.312
	c-0.146,0.056-0.283,0.127-0.534,0.26L22.13,0.79C22.505,0.684,22.896,0.633,23.292,0.633"/>
</svg>
