<?xml version="1.0" encoding="utf-8"?>
<!-- Generator: Adobe Illustrator 15.1.0, SVG Export Plug-In . SVG Version: 6.00 Build 0)  -->
<!DOCTYPE svg PUBLIC "-//W3C//DTD SVG 1.1//EN" "http://www.w3.org/Graphics/SVG/1.1/DTD/svg11.dtd">
<svg version="1.1" id="Layer_1" xmlns="http://www.w3.org/2000/svg" xmlns:xlink="http://www.w3.org/1999/xlink" x="0px" y="0px"
	 width="88.012px" height="200.187px" viewBox="0 0 88.012 200.187" enable-background="new 0 0 88.012 200.187"
	 xml:space="preserve">
<g>
	<path fill="#33945F" d="M50.375,83.083c-3.301,0.927-5.721,3.956-5.721,7.553h15.694c0-3.444-2.22-6.368-5.306-7.424V9.732h-0.006
		c0.001-0.066,0.004-0.131,0.004-0.197c0-5.246-3.386-9.502-7.571-9.535h-1.165c-4.186,0.033-7.571,4.289-7.571,9.535
		c0,0.066,0.003,0.131,0.004,0.197h-0.006v52.37h0.014v6.325c0,2.736-1.3,4.955-2.906,4.971h-1.391
		c-1.607-0.016-2.906-2.235-2.906-4.971l0.014-12.18H31.55c0.001-0.066,0.004-0.131,0.004-0.196c0-5.247-3.386-9.503-7.571-9.536
		h-1.391c-4.186,0.033-7.571,4.289-7.571,9.536c0,0.065,0.003,0.13,0.004,0.196h-0.006v0.89h0.001v2.629
		c0,2.736-1.3,4.956-2.906,4.972v0.002h-0.797c-0.241-0.936-0.886-1.292-1.658-1.641L5.342,62.1c-1.43-0.363-1.755,0.12-1.755,1.089
		v0.868H0.708C0.317,64.057,0,64.373,0,64.765c0,0.391,0.317,0.708,0.708,0.708h2.879v3.081H0.708C0.317,68.554,0,68.871,0,69.262
		c0,0.39,0.317,0.708,0.708,0.708h2.879v0.867c0,0.97,0.222,1.462,1.755,1.09l4.317-1c0.68-0.122,1.308-0.698,1.593-1.427h0.93
		v-0.005c4.154-0.079,7.503-4.315,7.503-9.533c0-0.066-0.003-0.131-0.004-0.196l0.006-2.261v-1.143h-0.001v-0.115
		c0-2.736,1.299-4.956,2.906-4.972h1.391c1.606,0.016,2.906,2.236,2.906,4.972c0,0-0.012,12.31-0.012,12.376
		c0,5.246,3.385,9.502,7.571,9.535h1.391c4.186-0.033,7.571-4.289,7.571-9.535c0-0.066-0.003-0.131-0.004-0.196h0.006v-6.325h-0.014
		V18.328V9.732c0-2.737,1.299-4.956,2.906-4.972h1.165c1.605,0.016,2.906,2.235,2.906,4.972v8.596V83.083z"/>
	<path fill="#33945F" d="M72.357,134.628l-3.797-7.347l-0.484-8.175c-0.016-0.5-0.189-0.957-0.469-1.334
		c-0.338-0.558-0.896-0.979-1.584-1.109l-21.692-4.912l-0.223-4.841l20.052,3.426c1.527,0,2.775-1.249,2.775-2.776
		c0-1.526-1.248-2.775-2.775-2.775l-22.136-2.943c-0.088,0-0.172,0.016-0.258,0.026c-0.177-0.003-0.355,0.008-0.535,0.046
		l-0.272,0.059c-1.283,0.271-2.111,1.543-1.839,2.826l0.883,9.375c0.187,0.883,0.901,1.521,1.743,1.667
		c0.118,0.046,0.239,0.084,0.367,0.109l20.983,5.297l0.436,6.655c0.009,0.271,0.072,0.525,0.164,0.767
		c0.045,0.198,0.104,0.394,0.201,0.582l0.758,1.465l4.017,7.772c0.097,0.187,0.22,0.348,0.354,0.496
		c0.258,0.285,0.574,0.498,0.924,0.629c7.666,5.455,12.689,14.546,12.689,24.844c0,16.689-13.184,30.217-29.447,30.217
		c-16.262,0-29.445-13.527-29.445-30.217c0-10.354,5.077-19.486,12.812-24.932c0.182-0.129,0.368-0.252,0.553-0.377
		c0.203-0.186,0.383-0.401,0.516-0.66l3.88-8.484l0.854-1.652c0.662-1.283,0.156-2.873-1.126-3.535l-0.271-0.141
		c-1.282-0.662-2.873-0.156-3.536,1.126l-3.533,8.914c-9.356,6.406-15.522,17.333-15.522,29.741c0,19.734,15.589,35.73,34.818,35.73
		c19.231,0,34.82-15.996,34.82-35.73C88.012,151.99,81.787,141.021,72.357,134.628"/>
	<path fill="#33945F" d="M63.427,97.483c0-0.553-0.194-1.056-0.508-1.462c-0.306-0.467-0.798-0.8-1.382-0.883
		c-0.024-0.005-0.049-0.009-0.073-0.013c-0.017-0.002-0.032-0.008-0.049-0.009l-0.076-0.004c-0.104-0.013-0.207-0.031-0.313-0.031
		c-0.039,0-0.072,0.009-0.109,0.011l-15.538-0.759c-0.577-0.045-1.106,0.227-1.425,0.665c-0.309,0.344-0.502,0.794-0.502,1.293
		c0,0.491,0.188,0.934,0.487,1.275c0.025,0.032,0.05,0.063,0.077,0.093c0.005,0.005,0.01,0.01,0.015,0.015
		c0.163,0.174,0.363,0.309,0.59,0.399c0.016,0.007,0.032,0.013,0.048,0.019c0.049,0.017,0.098,0.034,0.149,0.046
		c0.184,0.058,0.63,0.091,0.66,0.09c0,0,15.351,1.657,15.549,1.657c0.057,0,0.109-0.013,0.166-0.017
		c0.545,0.002,1.043-0.218,1.407-0.584C63.102,98.844,63.427,98.204,63.427,97.483"/>
</g>
</svg>
