<?xml version="1.0" encoding="utf-8"?>
<!-- Generator: Adobe Illustrator 15.1.0, SVG Export Plug-In . SVG Version: 6.00 Build 0)  -->
<!DOCTYPE svg PUBLIC "-//W3C//DTD SVG 1.1//EN" "http://www.w3.org/Graphics/SVG/1.1/DTD/svg11.dtd">
<svg version="1.1" id="Layer_1" xmlns="http://www.w3.org/2000/svg" xmlns:xlink="http://www.w3.org/1999/xlink" x="0px" y="0px"
	 width="279px" height="746px" viewBox="0 0 279 746" enable-background="new 0 0 279 746" xml:space="preserve">
<path d="M38.207,0.502c0.261,0,0.517,0.011,0.776,0.016l18-0.024h191.208v18.455H90.978H38.983c-10.82,0-19.597,5.139-19.658,11.491
	v4.606c0.061,6.353,8.838,11.491,19.658,11.491h33.995h38.093v-0.055h25.011v0.023c0.259-0.005,0.515-0.016,0.775-0.016
	c20.747,0,37.575,13.386,37.708,29.938v5.5c-0.133,16.553-16.961,29.938-37.708,29.938c-0.26,0-48.938-0.046-48.938-0.046
	c-10.821,0-19.597,5.138-19.659,11.49v5.5c0.062,6.354,8.838,11.491,19.659,11.491h0.457v-0.005h4.519l8.94,0.024
	c0.259-0.005,0.516-0.016,0.776-0.016c20.633,0,37.383,13.241,37.697,29.667h0.017v233.101v21.67v151.02h-0.017
	c-0.314,16.427-17.064,29.668-37.697,29.668c-0.26,0-0.517-0.011-0.776-0.015l-8.94,0.023h-4.519v-0.004h-0.457
	c-10.821,0-19.597,5.138-19.659,11.49v5.5c0.062,6.354,8.838,11.491,19.659,11.491c0,0,48.678-0.046,48.938-0.046
	c20.747,0,37.575,13.386,37.708,29.938v5.5c-0.133,16.553-16.961,29.938-37.708,29.938c-0.26,0-0.516-0.012-0.775-0.017v0.024
	h-7.011V699.2h-11.093H83.983c-10.82,0-19.597,5.139-19.658,11.491v4.605c0.061,6.354,8.838,11.491,19.658,11.491h33.995h160.814
	v18.455H83.983v-0.024c-0.259,0.004-0.515,0.017-0.776,0.017c-20.746,0-37.574-13.386-37.707-29.938v-4.605
	c0.133-16.553,16.961-29.938,37.707-29.938c0.261,0,0.517,0.011,0.776,0.016v-0.024h45.088v0.055h7.011
	c10.82,0,19.596-5.139,19.658-11.491v-5.5c-0.062-6.353-8.838-11.492-19.658-11.492l-48.163,0.056v-0.024
	c-0.259,0.006-0.516,0.017-0.776,0.017c-20.746,0-37.575-13.386-37.707-29.938v-5.5c0.132-16.552,16.961-29.938,37.707-29.938
	c0.26,0,0.517,0.011,0.776,0.015v-0.024h3.52v0.007h10.396c10.821,0,19.597-5.14,19.659-11.492h0.01v-150.75v-21.67v-232.83h-0.01
	c-0.062-6.353-8.838-11.491-19.659-11.491H91.439v0.005h-3.52v-0.024c-0.259,0.006-0.516,0.017-0.776,0.017
	c-20.746,0-37.575-13.386-37.707-29.938v-5.5c0.132-16.552,16.961-29.938,37.707-29.938c0.26,0,0.517,0.011,0.776,0.015v-0.022
	l48.163,0.054c10.82,0,19.596-5.138,19.658-11.491v-5.5c-0.062-6.353-8.838-11.49-19.658-11.49h-25.011v0.055H38.983v-0.024
	c-0.259,0.004-0.515,0.015-0.776,0.015c-20.746,0-37.574-13.386-37.707-29.937v-4.606C0.633,13.888,17.461,0.502,38.207,0.502"/>
</svg>
